<svg version="1.0" xmlns="http://www.w3.org/2000/svg"
 width="24.000000pt" height="24.000000pt" viewBox="0 0 24.000000 24.000000"
 preserveAspectRatio="xMidYMid meet">
<g transform="translate(0.000000,24.000000) scale(0.005063,-0.005063)"
fill="#FFFFFF" stroke="none">
<path d="M2090 4675 c-692 -93 -1273 -453 -1655 -1025 -266 -398 -397 -862
-382 -1353 11 -359 87 -660 247 -979 416 -827 1309 -1336 2224 -1268 256 19
467 65 683 150 1177 458 1770 1744 1358 2941 -53 152 -160 366 -257 511 -360
537 -905 894 -1538 1005 -182 32 -512 40 -680 18z m1413 -794 c10 -3 69 -58
132 -120 98 -97 112 -115 102 -129 -7 -10 -177 -181 -380 -382 l-367 -365
-120 121 -120 121 0 48 0 49 313 314 c171 173 326 323 342 333 31 19 66 23 98
10z m366 -399 c138 -359 -11 -858 -412 -1382 -152 -198 -371 -431 -592 -629
-556 -498 -1103 -723 -1523 -626 -60 14 -175 65 -186 83 -5 9 724 742 738 742
3 0 18 -7 32 -17 68 -44 171 -5 354 133 340 257 716 655 795 840 24 56 23 124
-2 166 l-21 36 379 377 c320 320 380 376 393 366 8 -7 29 -47 45 -89z m-2276
-1513 c27 -14 237 -220 237 -233 0 -10 -730 -736 -740 -736 -3 0 -59 53 -123
118 l-117 119 0 49 0 48 303 304 c166 167 316 313 332 323 34 21 76 24 108 8z"/>
</g>
</svg>