
<svg version="1.0" xmlns="http://www.w3.org/2000/svg"
 width="24.000000pt" height="24.000000pt" viewBox="0 0 24.000000 24.000000"
 preserveAspectRatio="xMidYMid meet">
<g transform="translate(0.000000,24.000000) scale(0.009600,-0.009600)"
fill="#FFFFFF" stroke="none">
<path d="M1115 2493 c-567 -73 -1001 -486 -1096 -1041 -114 -671 344 -1320
1015 -1437 116 -20 330 -20 437 1 315 60 577 219 770 468 126 161 209 349 244
550 19 114 19 318 0 432 -105 597 -641 1042 -1245 1032 -52 0 -108 -3 -125 -5z
m640 -643 c180 -12 222 -22 273 -66 83 -70 102 -172 102 -539 0 -260 -14 -406
-46 -466 -20 -39 -72 -89 -109 -105 -62 -26 -277 -37 -720 -37 -470 0 -659 10
-729 41 -55 25 -102 80 -121 144 -26 89 -38 278 -32 513 6 223 22 346 51 390
61 94 117 114 356 128 133 8 839 6 975 -3z"/>
<path d="M1020 1265 c0 -196 3 -285 11 -285 11 0 528 267 542 280 5 4 -38 32
-95 62 -239 128 -436 228 -447 228 -8 0 -11 -80 -11 -285z"/>
</g>
</svg>